<svg width="16" height="11" viewBox="0 0 16 11" fill="none" xmlns="http://www.w3.org/2000/svg">
<path fill-rule="evenodd" clip-rule="evenodd" d="M1.43588 0C0.878019 0 0.425781 0.44772 0.425781 1V10C0.425781 10.5523 0.878019 11 1.43588 11H14.5672C15.1251 11 15.5773 10.5523 15.5773 10V1C15.5773 0.44772 15.1251 0 14.5672 0H1.43588ZM1.43588 1H14.5672V1.92494C14.4838 1.92486 14.3993 1.94751 14.3237 1.99505L8.00154 5.96703L1.67944 1.99505C1.60377 1.94751 1.51932 1.92486 1.43588 1.92494V1ZM1.43588 2.90797V10H14.5672V2.90797L8.24509 6.87995C8.09643 6.97335 7.90665 6.97335 7.75798 6.87995L1.43588 2.90797Z" fill="white"/>
</svg>
