<svg width="12" height="12" viewBox="0 0 12 12" fill="none" xmlns="http://www.w3.org/2000/svg">
<path fill-rule="evenodd" clip-rule="evenodd" d="M0.206756 0.206758C-0.0689187 0.482419 -0.0689187 0.929354 0.206756 1.20502L9.58997 10.5882H3.52941C3.13957 10.5882 2.82353 10.9043 2.82353 11.2941C2.82353 11.6839 3.13957 12 3.52941 12H11.2941C11.4813 12 11.6609 11.9256 11.7933 11.7933C11.9256 11.6609 12 11.4813 12 11.2941V3.52941C12 3.13957 11.6839 2.82353 11.2941 2.82353C10.9043 2.82353 10.5882 3.13957 10.5882 3.52941V9.58998L1.20501 0.206744C0.929353 -0.068917 0.482417 -0.0689169 0.206756 0.206758Z" fill="white"/>
</svg>
