<svg width="48" height="44" viewBox="0 0 48 44" fill="none" xmlns="http://www.w3.org/2000/svg">
<path fill-rule="evenodd" clip-rule="evenodd" d="M31.1298 2.36801C30.2883 1.41282 29.4345 0.451487 28.1813 0H27.7452C26.8269 0.181209 26.0805 0.666481 25.4141 1.30839C24.3544 2.33115 23.4853 3.5044 22.6806 4.72373C19.2683 9.90815 16.3997 15.3997 13.6969 20.9742C10.8283 26.8835 8.50632 33.0169 6.4516 39.2518C6.11056 40.2878 5.78469 41.3285 5.45906 42.3683C5.32135 42.8081 5.18368 43.2477 5.04492 43.6868C5.15549 43.61 5.21077 43.5179 5.25992 43.4196C6.30743 41.2813 7.35035 39.1405 8.39333 36.9995C10.7601 32.1412 13.1271 27.2823 15.5489 22.4515C18.1657 17.2272 21.1295 12.1932 24.3759 7.3313C25.1899 6.11197 26.1235 4.96636 27.0603 3.83304C27.5394 3.25255 27.8527 3.26791 28.3595 3.83304C28.9707 4.51794 29.5634 5.22743 30.0794 5.98605C32.3522 9.33074 34.2442 12.8935 36.0747 16.4931C39.1552 22.5498 41.6369 28.8522 43.8667 35.2621C43.8942 35.3387 43.9129 35.4178 43.9348 35.5106C43.9472 35.563 43.9606 35.6197 43.9773 35.6829C43.8989 35.6459 43.8271 35.6131 43.7598 35.5824C43.6372 35.5265 43.5295 35.4773 43.4244 35.4218C42.9496 35.1725 42.477 34.9181 42.0043 34.6637C41.0093 34.1281 40.0137 33.5922 38.9955 33.1029C34.4131 30.9069 29.674 29.0948 24.8797 27.4271C22.441 26.5794 19.9716 25.8085 17.5023 25.0499C17.11 24.9286 16.9637 24.8526 16.8641 24.8926C16.7594 24.9347 16.7063 25.1051 16.4734 25.486C16.3095 25.7528 16.1528 26.0239 15.9925 26.3013C15.9185 26.4295 15.8436 26.559 15.767 26.69C15.8302 26.7103 15.8847 26.7282 15.9337 26.7444C16.0109 26.7699 16.0748 26.791 16.1386 26.8098C18.9458 27.6114 21.6916 28.5942 24.4036 29.6692C31.1728 32.3474 37.6626 35.6153 44.14 38.9201C45.1321 39.4268 46.1425 39.8998 47.1592 40.3574C47.6598 40.5847 47.8901 40.4434 47.9639 39.8906C48.0069 39.565 48.0191 39.2241 47.9639 38.9016C47.9514 38.8283 47.9389 38.7548 47.9265 38.6813C47.7858 37.8506 47.6441 37.0143 47.4325 36.1988C46.5541 32.7958 45.3164 29.5156 44.0295 26.2538C41.8734 20.7868 39.5361 15.3997 36.5876 10.3013C34.9782 7.51558 33.2644 4.79437 31.1298 2.36801ZM9.97052 24.1237C10.0322 23.9947 10.0965 23.8604 10.1631 23.7174L10.16 23.7143C6.68938 23.527 3.31705 23.7082 0 24.5804C0.0491415 24.6142 0.098283 24.6204 0.147424 24.6204C0.700713 24.6387 1.25377 24.6557 1.80667 24.6727C3.28863 24.7183 4.76941 24.7638 6.25018 24.8354C7.02503 24.8742 7.79603 24.9707 8.56623 25.0671C8.76991 25.0926 8.97354 25.1181 9.17717 25.1425C9.41059 25.1701 9.53038 25.1149 9.61944 24.8937C9.72336 24.6402 9.84134 24.3937 9.97052 24.1237Z" fill="white"/>
</svg>
