<svg width="291" height="100" viewBox="0 0 291 100" fill="none" xmlns="http://www.w3.org/2000/svg">
<rect opacity="0.2" x="0.75" y="40.25" width="0.5" height="59.5" rx="0.25" stroke="white" stroke-width="0.5"/>
<rect opacity="0.3" x="13.3145" y="20.25" width="0.5" height="79.5" rx="0.25" stroke="white" stroke-width="0.5"/>
<rect x="25.8809" y="0.25" width="0.5" height="99.5" rx="0.25" stroke="white" stroke-width="0.5"/>
<rect opacity="0.3" x="38.4453" y="20.25" width="0.5" height="79.5" rx="0.25" stroke="white" stroke-width="0.5"/>
<rect opacity="0.2" x="51.0117" y="40.25" width="0.5" height="59.5" rx="0.25" stroke="white" stroke-width="0.5"/>
<rect opacity="0.1" x="63.5762" y="60.25" width="0.5" height="39.5" rx="0.25" stroke="white" stroke-width="0.5"/>
<rect opacity="0.2" x="76.1406" y="40.25" width="0.5" height="59.5" rx="0.25" stroke="white" stroke-width="0.5"/>
<rect opacity="0.3" x="88.707" y="20.25" width="0.5" height="79.5" rx="0.25" stroke="white" stroke-width="0.5"/>
<rect opacity="0.3" x="101.271" y="20.25" width="0.5" height="79.5" rx="0.25" stroke="white" stroke-width="0.5"/>
<rect opacity="0.2" x="113.838" y="40.25" width="0.5" height="59.5" rx="0.25" stroke="white" stroke-width="0.5"/>
<rect opacity="0.3" x="126.402" y="20.25" width="0.5" height="79.5" rx="0.25" stroke="white" stroke-width="0.5"/>
<rect x="138.967" y="0.25" width="0.5" height="99.5" rx="0.25" stroke="white" stroke-width="0.5"/>
<rect x="151.533" y="0.25" width="0.5" height="99.5" rx="0.25" stroke="white" stroke-width="0.5"/>
<rect opacity="0.3" x="164.098" y="20.25" width="0.5" height="79.5" rx="0.25" stroke="white" stroke-width="0.5"/>
<rect opacity="0.2" x="176.662" y="40.25" width="0.5" height="59.5" rx="0.25" stroke="white" stroke-width="0.5"/>
<rect opacity="0.1" x="189.229" y="60.25" width="0.5" height="39.5" rx="0.25" stroke="white" stroke-width="0.5"/>
<rect opacity="0.2" x="201.793" y="40.25" width="0.5" height="59.5" rx="0.25" stroke="white" stroke-width="0.5"/>
<rect opacity="0.3" x="214.359" y="20.25" width="0.5" height="79.5" rx="0.25" stroke="white" stroke-width="0.5"/>
<rect x="226.924" y="0.25" width="0.5" height="99.5" rx="0.25" stroke="white" stroke-width="0.5"/>
<rect opacity="0.3" x="239.488" y="20.25" width="0.5" height="79.5" rx="0.25" stroke="white" stroke-width="0.5"/>
<rect opacity="0.2" x="252.055" y="40.25" width="0.5" height="59.5" rx="0.25" stroke="white" stroke-width="0.5"/>
<rect opacity="0.3" x="264.619" y="20.25" width="0.5" height="79.5" rx="0.25" stroke="white" stroke-width="0.5"/>
<rect x="277.186" y="0.25" width="0.5" height="99.5" rx="0.25" stroke="white" stroke-width="0.5"/>
<rect opacity="0.3" x="289.75" y="20.25" width="0.5" height="79.5" rx="0.25" fill="#D9D9D9" stroke="white" stroke-width="0.5"/>
</svg>
