<svg width="335" height="111" viewBox="0 0 335 111" fill="none" xmlns="http://www.w3.org/2000/svg">
<path d="M12.0315 110.573V99.7922L1 83.4266H5.7725L14.1831 96.1856L22.5936 83.4266H27.1705L16.139 99.8698V110.573H12.0315Z" fill="white"/>
<path d="M41.9411 111C39.9591 111 38.1075 110.651 36.3863 109.953C34.6651 109.229 33.1395 108.234 31.8094 106.967C30.5055 105.674 29.4884 104.187 28.7581 102.507C28.054 100.801 27.702 98.9649 27.702 97C27.702 95.0351 28.054 93.2124 28.7581 91.5319C29.4884 89.8255 30.5055 88.3389 31.8094 87.072C33.1395 85.7793 34.6651 84.7839 36.3863 84.0859C38.1075 83.362 39.9591 83 41.9411 83C43.9232 83 45.7748 83.362 47.4961 84.0859C49.2434 84.7839 50.769 85.7793 52.0729 87.072C53.3769 88.3389 54.394 89.8255 55.1242 91.5319C55.8544 93.2124 56.2195 95.0351 56.2195 97C56.2195 98.9649 55.8544 100.801 55.1242 102.507C54.394 104.187 53.3769 105.674 52.0729 106.967C50.769 108.234 49.2434 109.229 47.4961 109.953C45.7748 110.651 43.9232 111 41.9411 111ZM41.9803 107.238C43.3886 107.238 44.6925 106.98 45.8922 106.463C47.1179 105.946 48.1871 105.235 49.0999 104.33C50.0127 103.399 50.7299 102.313 51.2514 101.072C51.773 99.8052 52.0338 98.4478 52.0338 97C52.0338 95.5263 51.773 94.169 51.2514 92.928C50.7299 91.687 50.0127 90.614 49.0999 89.7091C48.1871 88.7784 47.1179 88.0545 45.8922 87.5374C44.6925 87.0203 43.3886 86.7618 41.9803 86.7618C40.5459 86.7618 39.2159 87.0203 37.9902 87.5374C36.7644 88.0545 35.6952 88.7784 34.7824 89.7091C33.8697 90.614 33.1525 91.687 32.6309 92.928C32.1354 94.169 31.8876 95.5263 31.8876 97C31.8876 98.4478 32.1354 99.8052 32.6309 101.072C33.1525 102.313 33.8697 103.399 34.7824 104.33C35.6952 105.235 36.7644 105.946 37.9902 106.463C39.2159 106.98 40.5459 107.238 41.9803 107.238Z" fill="white"/>
<path d="M73.2585 111C70.8853 111 68.825 110.509 67.0777 109.526C65.3304 108.544 63.9873 107.161 63.0485 105.377C62.1096 103.567 61.6402 101.434 61.6402 98.9778V83.4266H65.7477V98.9778C65.7477 100.658 66.0476 102.119 66.6474 103.36C67.2733 104.601 68.147 105.558 69.2684 106.23C70.4159 106.902 71.7459 107.238 73.2585 107.238C74.8232 107.238 76.1663 106.902 77.2877 106.23C78.4091 105.558 79.2697 104.601 79.8696 103.36C80.4955 102.119 80.8084 100.658 80.8084 98.9778V83.4266H84.9159V98.9778C84.9159 101.434 84.4334 103.567 83.4685 105.377C82.5296 107.161 81.1866 108.544 79.4392 109.526C77.6919 110.509 75.6317 111 73.2585 111Z" fill="white"/>
<path d="M91.5618 110.573V83.4266H103.962C105.788 83.4266 107.379 83.7627 108.735 84.4349C110.117 85.1071 111.186 86.0508 111.943 87.2659C112.725 88.4552 113.116 89.8513 113.116 91.4543C113.116 93.2382 112.608 94.7765 111.591 96.0692C110.574 97.362 109.204 98.2927 107.483 98.8615L113.586 110.573H109.048L103.376 99.4432H95.6693V110.573H91.5618ZM95.6693 96.0305H103.649C105.266 96.0305 106.557 95.6297 107.522 94.8282C108.513 94.0009 109.009 92.8892 109.009 91.4931C109.009 90.1487 108.513 89.0628 107.522 88.2355C106.557 87.4081 105.266 86.9945 103.649 86.9945H95.6693V96.0305Z" fill="white"/>
<path d="M128.653 110.573V83.4266H140.506C142.305 83.4266 143.87 83.7239 145.2 84.3185C146.53 84.9132 147.56 85.7535 148.29 86.8393C149.021 87.8994 149.386 89.1533 149.386 90.6011C149.386 91.9197 149.047 93.0831 148.369 94.0914C147.691 95.0997 146.739 95.9012 145.513 96.4958C147.052 97.0388 148.251 97.8661 149.112 98.9778C149.999 100.064 150.442 101.343 150.442 102.817C150.442 104.394 150.051 105.765 149.268 106.928C148.486 108.091 147.391 108.996 145.982 109.643C144.574 110.263 142.918 110.573 141.014 110.573H128.653ZM132.76 94.9446H140.271C141.81 94.9446 143.035 94.5826 143.948 93.8587C144.861 93.1348 145.317 92.1524 145.317 90.9114C145.317 89.6704 144.861 88.6879 143.948 87.964C143.035 87.2401 141.81 86.8781 140.271 86.8781H132.76V94.9446ZM132.76 107.122H140.701C142.423 107.122 143.779 106.721 144.77 105.92C145.787 105.118 146.295 104.032 146.295 102.662C146.295 101.318 145.787 100.245 144.77 99.4432C143.779 98.6159 142.423 98.2022 140.701 98.2022H132.76V107.122Z" fill="white"/>
<path d="M167.611 111C165.238 111 163.178 110.509 161.43 109.526C159.683 108.544 158.34 107.161 157.401 105.377C156.462 103.567 155.993 101.434 155.993 98.9778V83.4266H160.1V98.9778C160.1 100.658 160.4 102.119 161 103.36C161.626 104.601 162.5 105.558 163.621 106.23C164.768 106.902 166.099 107.238 167.611 107.238C169.176 107.238 170.519 106.902 171.64 106.23C172.762 105.558 173.622 104.601 174.222 103.36C174.848 102.119 175.161 100.658 175.161 98.9778V83.4266H179.268V98.9778C179.268 101.434 178.786 103.567 177.821 105.377C176.882 107.161 175.539 108.544 173.792 109.526C172.045 110.509 169.984 111 167.611 111Z" fill="white"/>
<path d="M195.186 110.961C192.995 110.961 190.882 110.535 188.848 109.681C186.814 108.828 185.015 107.626 183.45 106.075L185.954 103.205C187.44 104.653 188.953 105.726 190.491 106.424C192.056 107.122 193.686 107.471 195.381 107.471C196.711 107.471 197.872 107.29 198.863 106.928C199.88 106.54 200.662 105.997 201.21 105.299C201.757 104.601 202.031 103.813 202.031 102.934C202.031 101.718 201.601 100.788 200.74 100.141C199.88 99.4949 198.458 99.0037 196.476 98.6676L191.9 97.9307C189.396 97.4912 187.518 96.6897 186.266 95.5263C185.041 94.3629 184.428 92.8116 184.428 90.8726C184.428 89.3213 184.845 87.964 185.68 86.8006C186.514 85.6113 187.688 84.6934 189.2 84.0471C190.739 83.4007 192.512 83.0776 194.521 83.0776C196.503 83.0776 198.445 83.4007 200.349 84.0471C202.279 84.6676 204.013 85.5725 205.552 86.7618L203.283 89.8643C200.336 87.6408 197.35 86.5291 194.325 86.5291C193.125 86.5291 192.082 86.6971 191.195 87.0332C190.309 87.3693 189.618 87.8476 189.122 88.4681C188.627 89.0628 188.379 89.7608 188.379 90.5623C188.379 91.674 188.757 92.5272 189.513 93.1219C190.27 93.6907 191.521 94.1043 193.269 94.3629L197.689 95.0997C200.584 95.5651 202.709 96.4053 204.066 97.6205C205.422 98.8356 206.1 100.503 206.1 102.623C206.1 104.278 205.643 105.739 204.731 107.006C203.818 108.247 202.54 109.216 200.897 109.914C199.254 110.612 197.35 110.961 195.186 110.961Z" fill="white"/>
<path d="M211.47 110.573V83.4266H215.577V110.573H211.47Z" fill="white"/>
<path d="M222.738 110.573V83.4266H226.728L242.024 103.593V83.4266H245.896V110.573H242.297L226.65 89.7867V110.573H222.738Z" fill="white"/>
<path d="M253.069 110.573V83.4266H273.254V86.9945H257.176V95.1385H267.738V98.59H257.176V107.006H273.411V110.573H253.069Z" fill="white"/>
<path d="M288.469 110.961C286.278 110.961 284.165 110.535 282.131 109.681C280.097 108.828 278.298 107.626 276.733 106.075L279.236 103.205C280.723 104.653 282.236 105.726 283.774 106.424C285.339 107.122 286.969 107.471 288.664 107.471C289.994 107.471 291.155 107.29 292.146 106.928C293.163 106.54 293.945 105.997 294.493 105.299C295.04 104.601 295.314 103.813 295.314 102.934C295.314 101.718 294.884 100.788 294.023 100.141C293.163 99.4949 291.741 99.0037 289.759 98.6676L285.183 97.9307C282.679 97.4912 280.801 96.6897 279.549 95.5263C278.324 94.3629 277.711 92.8116 277.711 90.8726C277.711 89.3213 278.128 87.964 278.963 86.8006C279.797 85.6113 280.971 84.6934 282.483 84.0471C284.022 83.4007 285.795 83.0776 287.804 83.0776C289.786 83.0776 291.728 83.4007 293.632 84.0471C295.562 84.6676 297.296 85.5725 298.835 86.7618L296.566 89.8643C293.619 87.6408 290.633 86.5291 287.608 86.5291C286.408 86.5291 285.365 86.6971 284.478 87.0332C283.592 87.3693 282.901 87.8476 282.405 88.4681C281.91 89.0628 281.662 89.7608 281.662 90.5623C281.662 91.674 282.04 92.5272 282.796 93.1219C283.553 93.6907 284.804 94.1043 286.552 94.3629L290.972 95.0997C293.867 95.5651 295.992 96.4053 297.348 97.6205C298.705 98.8356 299.383 100.503 299.383 102.623C299.383 104.278 298.926 105.739 298.014 107.006C297.101 108.247 295.823 109.216 294.18 109.914C292.537 110.612 290.633 110.961 288.469 110.961Z" fill="white"/>
<path d="M314.406 110.961C312.215 110.961 310.103 110.535 308.069 109.681C306.035 108.828 304.235 107.626 302.67 106.075L305.174 103.205C306.661 104.653 308.173 105.726 309.712 106.424C311.277 107.122 312.907 107.471 314.602 107.471C315.932 107.471 317.092 107.29 318.083 106.928C319.1 106.54 319.883 105.997 320.43 105.299C320.978 104.601 321.252 103.813 321.252 102.934C321.252 101.718 320.822 100.788 319.961 100.141C319.1 99.4949 317.679 99.0037 315.697 98.6676L311.12 97.9307C308.617 97.4912 306.739 96.6897 305.487 95.5263C304.261 94.3629 303.648 92.8116 303.648 90.8726C303.648 89.3213 304.066 87.964 304.9 86.8006C305.735 85.6113 306.908 84.6934 308.421 84.0471C309.96 83.4007 311.733 83.0776 313.741 83.0776C315.723 83.0776 317.666 83.4007 319.57 84.0471C321.5 84.6676 323.234 85.5725 324.773 86.7618L322.504 89.8643C319.557 87.6408 316.571 86.5291 313.546 86.5291C312.346 86.5291 311.303 86.6971 310.416 87.0332C309.529 87.3693 308.838 87.8476 308.343 88.4681C307.847 89.0628 307.599 89.7608 307.599 90.5623C307.599 91.674 307.978 92.5272 308.734 93.1219C309.49 93.6907 310.742 94.1043 312.489 94.3629L316.91 95.0997C319.805 95.5651 321.93 96.4053 323.286 97.6205C324.642 98.8356 325.32 100.503 325.32 102.623C325.32 104.278 324.864 105.739 323.951 107.006C323.038 108.247 321.76 109.216 320.117 109.914C318.474 110.612 316.571 110.961 314.406 110.961Z" fill="white"/>
<path d="M332.535 110.845C331.857 110.845 331.271 110.612 330.775 110.147C330.306 109.656 330.071 109.074 330.071 108.402C330.071 107.729 330.306 107.161 330.775 106.695C331.271 106.204 331.857 105.958 332.535 105.958C333.214 105.958 333.787 106.204 334.257 106.695C334.752 107.161 335 107.729 335 108.402C335 109.074 334.752 109.656 334.257 110.147C333.787 110.612 333.214 110.845 332.535 110.845Z" fill="white"/>
<path d="M66.4587 68.8574C63.9972 68.8574 61.7092 68.4313 59.5948 67.5793C57.512 66.6956 55.6658 65.4806 54.0564 63.9343C52.4784 62.3564 51.2477 60.5418 50.364 58.4905C49.512 56.4077 49.0859 54.167 49.0859 51.7686C49.0859 49.3702 49.512 47.1453 50.364 45.094C51.2477 43.0112 52.4784 41.1966 54.0564 39.6502C55.6658 38.0723 57.5278 36.8573 59.6422 36.0053C61.7566 35.1216 64.0288 34.6798 66.4587 34.6798C68.1944 34.6798 69.8828 34.9165 71.5238 35.3899C73.1964 35.8317 74.727 36.4786 76.1156 37.3307C77.5357 38.1828 78.7665 39.2084 79.8079 40.4076L76.4943 43.8159C75.2635 42.3327 73.7645 41.2124 71.9972 40.455C70.23 39.666 68.3838 39.2715 66.4587 39.2715C64.6915 39.2715 63.0505 39.5871 61.5357 40.2183C60.0524 40.8494 58.7585 41.7331 57.654 42.8692C56.5495 43.9737 55.6816 45.2834 55.0504 46.7982C54.4508 48.313 54.151 49.9698 54.151 51.7686C54.151 53.5358 54.4508 55.1769 55.0504 56.6917C55.6816 58.2065 56.5652 59.5319 57.7013 60.668C58.8374 61.8041 60.1629 62.6877 61.6777 63.3189C63.1925 63.9501 64.8335 64.2656 66.6008 64.2656C68.5258 64.2656 70.3404 63.887 72.0446 63.1296C73.7803 62.3406 75.2477 61.2361 76.4469 59.8159L79.7132 63.1296C78.6087 64.2972 77.3463 65.3228 75.9262 66.2065C74.5377 67.0585 73.0229 67.7213 71.3818 68.1946C69.7724 68.6365 68.1313 68.8574 66.4587 68.8574Z" fill="white"/>
<path d="M101.729 68.8574C99.2672 68.8574 96.9793 68.4313 94.8649 67.5793C92.782 66.6956 90.9359 65.4806 89.3264 63.9343C87.7485 62.3564 86.5177 60.5418 85.6341 58.4905C84.782 56.4077 84.356 54.167 84.356 51.7686C84.356 49.3702 84.782 47.1453 85.6341 45.094C86.5177 43.0112 87.7485 41.1966 89.3264 39.6502C90.9359 38.0723 92.7978 36.8573 94.9122 36.0053C97.0266 35.1216 99.2988 34.6798 101.729 34.6798C103.464 34.6798 105.153 34.9165 106.794 35.3899C108.466 35.8317 109.997 36.4786 111.386 37.3307C112.806 38.1828 114.036 39.2084 115.078 40.4076L111.764 43.8159C110.534 42.3327 109.035 41.2124 107.267 40.455C105.5 39.666 103.654 39.2715 101.729 39.2715C99.9615 39.2715 98.3205 39.5871 96.8057 40.2183C95.3225 40.8494 94.0286 41.7331 92.924 42.8692C91.8195 43.9737 90.9516 45.2834 90.3205 46.7982C89.7209 48.313 89.4211 49.9698 89.4211 51.7686C89.4211 53.5358 89.7209 55.1769 90.3205 56.6917C90.9516 58.2065 91.8353 59.5319 92.9714 60.668C94.1075 61.8041 95.4329 62.6877 96.9477 63.3189C98.4625 63.9501 100.104 64.2656 101.871 64.2656C103.796 64.2656 105.61 63.887 107.315 63.1296C109.05 62.3406 110.518 61.2361 111.717 59.8159L114.983 63.1296C113.879 64.2972 112.616 65.3228 111.196 66.2065C109.808 67.0585 108.293 67.7213 106.652 68.1946C105.042 68.6365 103.401 68.8574 101.729 68.8574Z" fill="white"/>
<path d="M121.74 68.3367V35.2005H146.166V39.5556H126.71V49.4964H139.491V53.7094H126.71V63.9816H146.355V68.3367H121.74Z" fill="white"/>
<path d="M153.358 68.3367V35.2005H158.328V63.9343H177.405V68.3367H153.358Z" fill="white"/>
<path d="M184.328 68.3367V35.2005H208.754V39.5556H189.299V49.4964H202.08V53.7094H189.299V63.9816H208.944V68.3367H184.328Z" fill="white"/>
<path d="M215.946 68.3367V35.2005H230.952C233.161 35.2005 235.086 35.6108 236.728 36.4313C238.4 37.2518 239.694 38.4037 240.609 39.8869C241.556 41.3386 242.029 43.0427 242.029 44.9993C242.029 47.1769 241.414 49.0546 240.183 50.6325C238.952 52.2104 237.296 53.3465 235.213 54.0408L242.597 68.3367H237.106L230.242 54.7508H220.917V68.3367H215.946ZM220.917 50.5852H230.574C232.53 50.5852 234.092 50.096 235.26 49.1177C236.459 48.1078 237.059 46.7508 237.059 45.0467C237.059 43.4057 236.459 42.0802 235.26 41.0704C234.092 40.0605 232.53 39.5556 230.574 39.5556H220.917V50.5852Z" fill="white"/>
<path d="M246.192 68.3367L259.873 35.2005H265.743L279.281 68.3367H273.885L270.05 58.6325H255.234L251.352 68.3367H246.192ZM256.843 54.5141H268.441L262.666 39.9343L256.843 54.5141Z" fill="white"/>
<path d="M287.716 68.3367V39.6029H276.072V35.2005H304.332V39.6029H292.687V68.3367H287.716Z" fill="white"/>
<path d="M310.384 68.3367V35.2005H334.811V39.5556H315.355V49.4964H328.136V53.7094H315.355V63.9816H335V68.3367H310.384Z" fill="white"/>
<path fill-rule="evenodd" clip-rule="evenodd" d="M26.8624 35.0434C26.1362 34.2192 25.3994 33.3896 24.3181 33H23.9417C23.1493 33.1564 22.5053 33.5751 21.9301 34.129C21.0158 35.0116 20.2657 36.024 19.5713 37.0762C16.6268 41.55 14.1514 46.2888 11.8191 51.0991C9.34371 56.1983 7.34007 61.491 5.56699 66.8712C5.27271 67.7653 4.99151 68.6632 4.71052 69.5605C4.59168 69.94 4.47288 70.3194 4.35314 70.6983C4.44856 70.632 4.49626 70.5525 4.53867 70.4677C5.44259 68.6226 6.34254 66.7752 7.24254 64.9278C9.28486 60.7354 11.3274 56.5425 13.4173 52.3739C15.6754 47.8657 18.2329 43.5218 21.0343 39.3263C21.7367 38.2742 22.5424 37.2856 23.3507 36.3076C23.7642 35.8067 24.0345 35.82 24.4718 36.3076C24.9992 36.8986 25.5107 37.5109 25.956 38.1655C27.9172 41.0517 29.5498 44.1261 31.1294 47.2323C33.7877 52.4587 35.9292 57.8972 37.8533 63.4284C37.877 63.4945 37.8932 63.5628 37.9121 63.6429C37.9228 63.6881 37.9344 63.737 37.9487 63.7915C37.8811 63.7596 37.8192 63.7313 37.7611 63.7048C37.6553 63.6566 37.5624 63.6142 37.4717 63.5663C37.062 63.3512 36.6542 63.1317 36.2463 62.9121C35.3877 62.4499 34.5285 61.9875 33.6499 61.5653C29.6956 59.6703 25.6061 58.1066 21.469 56.6674C19.3646 55.936 17.2337 55.2707 15.1029 54.6161C14.7643 54.5114 14.6381 54.4458 14.5522 54.4804C14.4618 54.5167 14.416 54.6638 14.215 54.9924C14.0736 55.2227 13.9384 55.4566 13.8001 55.696C13.7362 55.8066 13.6716 55.9183 13.6054 56.0314C13.66 56.0489 13.707 56.0644 13.7494 56.0784C13.816 56.1003 13.871 56.1185 13.9261 56.1347C16.3485 56.8265 18.7179 57.6746 21.0582 58.6022C26.8995 60.9133 32.4996 63.7332 38.0892 66.585C38.9452 67.0223 39.8172 67.4304 40.6945 67.8253C41.1265 68.0215 41.3252 67.8995 41.3889 67.4225C41.426 67.1416 41.4366 66.8474 41.3889 66.5691C41.3781 66.5057 41.3673 66.4423 41.3566 66.3788C41.2352 65.662 41.113 64.9404 40.9303 64.2368C40.1723 61.3002 39.1043 58.4697 37.9938 55.655C36.1332 50.9374 34.1163 46.2888 31.572 41.8892C30.1833 39.4854 28.7044 37.1372 26.8624 35.0434ZM8.60378 53.8164C8.65705 53.7051 8.71253 53.5892 8.76994 53.4658L8.76729 53.4632C5.77242 53.3015 2.86236 53.4579 0 54.2106C0.0424053 54.2397 0.0848106 54.245 0.127216 54.245C0.604682 54.2609 1.08195 54.2755 1.55908 54.2902C2.83788 54.3295 4.11565 54.3688 5.39342 54.4305C6.06204 54.4641 6.72735 54.5473 7.39196 54.6305C7.56773 54.6525 7.74346 54.6745 7.91919 54.6956C8.12061 54.7194 8.22397 54.6717 8.30083 54.4809C8.3905 54.2621 8.49231 54.0494 8.60378 53.8164Z" fill="white"/>
<path d="M9.46162 15.4362C8.34987 15.4362 7.31651 15.2438 6.36155 14.859C5.42084 14.4599 4.58703 13.9111 3.86011 13.2127C3.14745 12.5001 2.59158 11.6805 2.19249 10.754C1.80765 9.81332 1.61523 8.80135 1.61523 7.7181C1.61523 6.63486 1.80765 5.63001 2.19249 4.70355C2.59158 3.76284 3.14745 2.94328 3.86011 2.24488C4.58703 1.53222 5.42796 0.98347 6.38293 0.598634C7.33789 0.199544 8.36412 0 9.46162 0C10.2455 0 11.0081 0.106899 11.7493 0.320696C12.5047 0.520241 13.196 0.812432 13.8231 1.19727C14.4645 1.5821 15.0204 2.04533 15.4907 2.58695L13.9941 4.1263C13.4383 3.4564 12.7612 2.95041 11.9631 2.60833C11.1649 2.252 10.3311 2.07384 9.46162 2.07384C8.66344 2.07384 7.92227 2.21637 7.23812 2.50144C6.56822 2.7865 5.98384 3.18559 5.48498 3.6987C4.98611 4.19757 4.59415 4.78907 4.30909 5.47323C4.03828 6.15738 3.90287 6.90567 3.90287 7.7181C3.90287 8.51628 4.03828 9.25745 4.30909 9.9416C4.59415 10.6258 4.99324 11.2244 5.50636 11.7375C6.01947 12.2506 6.61811 12.6497 7.30226 12.9348C7.98641 13.2198 8.72758 13.3624 9.52576 13.3624C10.3952 13.3624 11.2148 13.1913 11.9844 12.8493C12.7684 12.4929 13.4311 11.9941 13.9728 11.3527L15.448 12.8493C14.9491 13.3766 14.379 13.8399 13.7376 14.2389C13.1104 14.6238 12.4263 14.9231 11.6851 15.1369C10.9582 15.3364 10.217 15.4362 9.46162 15.4362Z" fill="white"/>
<path d="M25.3271 15.4362C24.2438 15.4362 23.2319 15.2438 22.2912 14.859C21.3505 14.4599 20.5166 13.9111 19.7897 13.2127C19.0771 12.5001 18.5212 11.6805 18.1221 10.754C17.7373 9.81332 17.5448 8.80135 17.5448 7.7181C17.5448 6.63486 17.7373 5.63001 18.1221 4.70355C18.5212 3.76284 19.0771 2.94328 19.7897 2.24488C20.5166 1.53222 21.3505 0.98347 22.2912 0.598634C23.2319 0.199544 24.2438 0 25.3271 0C26.4103 0 27.4223 0.199544 28.363 0.598634C29.318 0.98347 30.1518 1.53222 30.8645 2.24488C31.5771 2.94328 32.133 3.76284 32.5321 4.70355C32.9312 5.63001 33.1307 6.63486 33.1307 7.7181C33.1307 8.80135 32.9312 9.81332 32.5321 10.754C32.133 11.6805 31.5771 12.5001 30.8645 13.2127C30.1518 13.9111 29.318 14.4599 28.363 14.859C27.4223 15.2438 26.4103 15.4362 25.3271 15.4362ZM25.3485 13.3624C26.1181 13.3624 26.8308 13.2198 27.4865 12.9348C28.1564 12.6497 28.7407 12.2577 29.2396 11.7589C29.7385 11.2458 30.1304 10.6471 30.4155 9.96298C30.7005 9.26458 30.8431 8.51628 30.8431 7.7181C30.8431 6.90567 30.7005 6.15738 30.4155 5.47323C30.1304 4.78907 29.7385 4.19757 29.2396 3.6987C28.7407 3.18559 28.1564 2.7865 27.4865 2.50144C26.8308 2.21637 26.1181 2.07384 25.3485 2.07384C24.5645 2.07384 23.8376 2.21637 23.1677 2.50144C22.4978 2.7865 21.9135 3.18559 21.4146 3.6987C20.9157 4.19757 20.5238 4.78907 20.2387 5.47323C19.9679 6.15738 19.8325 6.90567 19.8325 7.7181C19.8325 8.51628 19.9679 9.26458 20.2387 9.96298C20.5238 10.6471 20.9157 11.2458 21.4146 11.7589C21.9135 12.2577 22.4978 12.6497 23.1677 12.9348C23.8376 13.2198 24.5645 13.3624 25.3485 13.3624Z" fill="white"/>
<path d="M36.3499 15.201V0.235177H38.5306L46.8901 11.3527V0.235177H49.0067V15.201H47.0398L38.4879 3.74146V15.201H36.3499Z" fill="white"/>
<path d="M52.9267 15.201V0.235177H55.1075L63.467 11.3527V0.235177H65.5836V15.201H63.6166L55.0647 3.74146V15.201H52.9267Z" fill="white"/>
<path d="M69.5036 15.201V0.235177H80.5356V2.20212H71.7485V6.69187H77.521V8.59468H71.7485V13.2341H80.6211V15.201H69.5036Z" fill="white"/>
<path d="M90.0701 15.4362C88.9584 15.4362 87.925 15.2438 86.97 14.859C86.0293 14.4599 85.1955 13.9111 84.4686 13.2127C83.7559 12.5001 83.2001 11.6805 82.801 10.754C82.4161 9.81332 82.2237 8.80135 82.2237 7.7181C82.2237 6.63486 82.4161 5.63001 82.801 4.70355C83.2001 3.76284 83.7559 2.94328 84.4686 2.24488C85.1955 1.53222 86.0365 0.98347 86.9914 0.598634C87.9464 0.199544 88.9726 0 90.0701 0C90.854 0 91.6166 0.106899 92.3577 0.320696C93.1132 0.520241 93.8044 0.812432 94.4316 1.19727C95.073 1.5821 95.6289 2.04533 96.0992 2.58695L94.6026 4.1263C94.0468 3.4564 93.3697 2.95041 92.5715 2.60833C91.7734 2.252 90.9396 2.07384 90.0701 2.07384C89.2719 2.07384 88.5308 2.21637 87.8466 2.50144C87.1767 2.7865 86.5923 3.18559 86.0935 3.6987C85.5946 4.19757 85.2026 4.78907 84.9176 5.47323C84.6468 6.15738 84.5114 6.90567 84.5114 7.7181C84.5114 8.51628 84.6468 9.25745 84.9176 9.9416C85.2026 10.6258 85.6017 11.2244 86.1148 11.7375C86.628 12.2506 87.2266 12.6497 87.9108 12.9348C88.5949 13.2198 89.3361 13.3624 90.1342 13.3624C91.0037 13.3624 91.8232 13.1913 92.5929 12.8493C93.3769 12.4929 94.0396 11.9941 94.5812 11.3527L96.0565 12.8493C95.5576 13.3766 94.9875 13.8399 94.3461 14.2389C93.7189 14.6238 93.0348 14.9231 92.2936 15.1369C91.5667 15.3364 90.8255 15.4362 90.0701 15.4362Z" fill="white"/>
<path d="M103.422 15.201V2.2235H98.1622V0.235177H110.926V2.2235H105.667V15.201H103.422Z" fill="white"/>
<path d="M113.66 15.201V0.235177H115.904V15.201H113.66Z" fill="white"/>
<path d="M119.818 15.201V0.235177H121.999L130.358 11.3527V0.235177H132.475V15.201H130.508L121.956 3.74146V15.201H119.818Z" fill="white"/>
<path d="M143.578 15.4362C142.481 15.4362 141.455 15.2367 140.5 14.8376C139.559 14.4385 138.732 13.8897 138.02 13.1913C137.307 12.4787 136.751 11.6591 136.352 10.7327C135.953 9.79194 135.753 8.78709 135.753 7.7181C135.753 6.64912 135.946 5.65139 136.331 4.72493C136.73 3.78422 137.286 2.96466 137.998 2.26626C138.711 1.5536 139.538 0.997723 140.478 0.598634C141.419 0.199544 142.438 0 143.536 0C144.719 0 145.838 0.228051 146.892 0.684153C147.947 1.14026 148.838 1.77452 149.565 2.58695L148.025 4.08354C147.484 3.44215 146.814 2.95041 146.016 2.60833C145.232 2.252 144.405 2.07384 143.536 2.07384C142.752 2.07384 142.025 2.21637 141.355 2.50144C140.699 2.7865 140.122 3.18559 139.623 3.6987C139.124 4.19757 138.732 4.78907 138.447 5.47323C138.176 6.15738 138.041 6.90567 138.041 7.7181C138.041 8.51628 138.176 9.26458 138.447 9.96298C138.732 10.6471 139.124 11.2458 139.623 11.7589C140.136 12.272 140.728 12.6711 141.398 12.9562C142.068 13.2412 142.794 13.3837 143.578 13.3837C144.462 13.3837 145.26 13.1985 145.973 12.8279C146.7 12.4573 147.291 11.9513 147.747 11.3099C148.204 10.6543 148.481 9.92022 148.581 9.10779H143.6V7.14085H150.933V7.91052C150.933 8.97951 150.748 9.97011 150.377 10.8823C150.007 11.7945 149.486 12.5927 148.816 13.2768C148.161 13.961 147.384 14.4955 146.486 14.8803C145.588 15.2509 144.619 15.4362 143.578 15.4362Z" fill="white"/>
<path d="M197.413 15.4148C196.215 15.4148 195.061 15.1797 193.949 14.7093C192.837 14.2389 191.854 13.5762 190.999 12.721L192.367 11.1389C193.179 11.937 194.006 12.5286 194.847 12.9134C195.702 13.2982 196.593 13.4906 197.519 13.4906C198.246 13.4906 198.881 13.3909 199.422 13.1913C199.978 12.9775 200.406 12.6782 200.705 12.2934C201.004 11.9085 201.154 11.4738 201.154 10.9892C201.154 10.3193 200.919 9.8062 200.448 9.44987C199.978 9.09354 199.201 8.82273 198.118 8.63744L195.617 8.23122C194.248 7.98891 193.222 7.54707 192.538 6.90567C191.868 6.26428 191.533 5.40909 191.533 4.3401C191.533 3.48491 191.761 2.73661 192.217 2.09522C192.673 1.43957 193.315 0.933584 194.141 0.577254C194.982 0.220924 195.952 0.0427587 197.049 0.0427587C198.132 0.0427587 199.194 0.220924 200.235 0.577254C201.289 0.919331 202.237 1.41819 203.078 2.07384L201.838 3.78422C200.228 2.55845 198.596 1.94556 196.942 1.94556C196.287 1.94556 195.716 2.03821 195.232 2.2235C194.747 2.40879 194.369 2.67247 194.099 3.01455C193.828 3.34237 193.692 3.72721 193.692 4.16906C193.692 4.78195 193.899 5.2523 194.312 5.58012C194.726 5.89369 195.41 6.12175 196.365 6.26428L198.781 6.67049C200.363 6.92705 201.525 7.39028 202.266 8.06018C203.007 8.73008 203.377 9.64941 203.377 10.8182C203.377 11.7304 203.128 12.5357 202.629 13.2341C202.13 13.9182 201.432 14.4527 200.534 14.8376C199.636 15.2224 198.596 15.4148 197.413 15.4148Z" fill="white"/>
<path d="M206.313 15.201V0.235177H213.24C214.223 0.235177 215.078 0.427595 215.805 0.812431C216.532 1.18301 217.102 1.70326 217.516 2.37316C217.929 3.04306 218.136 3.81986 218.136 4.70355C218.136 5.58725 217.929 6.36405 217.516 7.03395C217.102 7.70385 216.525 8.23122 215.784 8.61606C215.057 8.98664 214.209 9.17193 213.24 9.17193H208.557V15.201H206.313ZM208.557 7.26913H213.004C213.888 7.26913 214.587 7.04108 215.1 6.58497C215.627 6.11462 215.891 5.49461 215.891 4.72493C215.891 3.95526 215.627 3.34237 215.1 2.88627C214.587 2.43017 213.888 2.20212 213.004 2.20212H208.557V7.26913Z" fill="white"/>
<path d="M221.303 15.201V0.235177H232.335V2.20212H223.547V6.69187H229.32V8.59468H223.547V13.2341H232.42V15.201H221.303Z" fill="white"/>
<path d="M241.869 15.4362C240.757 15.4362 239.724 15.2438 238.769 14.859C237.828 14.4599 236.995 13.9111 236.268 13.2127C235.555 12.5001 234.999 11.6805 234.6 10.754C234.215 9.81332 234.023 8.80135 234.023 7.7181C234.023 6.63486 234.215 5.63001 234.6 4.70355C234.999 3.76284 235.555 2.94328 236.268 2.24488C236.995 1.53222 237.835 0.98347 238.79 0.598634C239.745 0.199544 240.772 0 241.869 0C242.653 0 243.416 0.106899 244.157 0.320696C244.912 0.520241 245.603 0.812432 246.231 1.19727C246.872 1.5821 247.428 2.04533 247.898 2.58695L246.402 4.1263C245.846 3.4564 245.169 2.95041 244.371 2.60833C243.572 2.252 242.739 2.07384 241.869 2.07384C241.071 2.07384 240.33 2.21637 239.646 2.50144C238.976 2.7865 238.391 3.18559 237.892 3.6987C237.394 4.19757 237.002 4.78907 236.717 5.47323C236.446 6.15738 236.31 6.90567 236.31 7.7181C236.31 8.51628 236.446 9.25745 236.717 9.9416C237.002 10.6258 237.401 11.2244 237.914 11.7375C238.427 12.2506 239.026 12.6497 239.71 12.9348C240.394 13.2198 241.135 13.3624 241.933 13.3624C242.803 13.3624 243.622 13.1913 244.392 12.8493C245.176 12.4929 245.839 11.9941 246.38 11.3527L247.855 12.8493C247.357 13.3766 246.786 13.8399 246.145 14.2389C245.518 14.6238 244.834 14.9231 244.093 15.1369C243.366 15.3364 242.625 15.4362 241.869 15.4362Z" fill="white"/>
<path d="M250.907 15.201V0.235177H253.152V15.201H250.907Z" fill="white"/>
<path d="M255.569 15.201L261.747 0.235177H264.399L270.513 15.201H268.076L266.344 10.8182H259.652L257.899 15.201H255.569ZM260.379 8.95813H265.617L263.009 2.37316L260.379 8.95813Z" fill="white"/>
<path d="M272.911 15.201V0.235177H275.156V13.2127H283.772V15.201H272.911Z" fill="white"/>
<path d="M287.852 15.201V2.2235H282.592V0.235177H295.356V2.2235H290.096V15.201H287.852Z" fill="white"/>
<path d="M298.089 15.201V0.235177H300.334V15.201H298.089Z" fill="white"/>
<path d="M304.248 15.201V0.235177H315.28V2.20212H306.493V6.69187H312.265V8.59468H306.493V13.2341H315.365V15.201H304.248Z" fill="white"/>
<path d="M323.595 15.4148C322.398 15.4148 321.243 15.1797 320.132 14.7093C319.02 14.2389 318.036 13.5762 317.181 12.721L318.549 11.1389C319.362 11.937 320.189 12.5286 321.029 12.9134C321.885 13.2982 322.775 13.4906 323.702 13.4906C324.429 13.4906 325.063 13.3909 325.605 13.1913C326.161 12.9775 326.588 12.6782 326.888 12.2934C327.187 11.9085 327.337 11.4738 327.337 10.9892C327.337 10.3193 327.101 9.8062 326.631 9.44987C326.161 9.09354 325.384 8.82273 324.301 8.63744L321.799 8.23122C320.431 7.98891 319.405 7.54707 318.72 6.90567C318.051 6.26428 317.716 5.40909 317.716 4.3401C317.716 3.48491 317.944 2.73661 318.4 2.09522C318.856 1.43957 319.497 0.933584 320.324 0.577254C321.165 0.220924 322.134 0.0427587 323.232 0.0427587C324.315 0.0427587 325.377 0.220924 326.417 0.577254C327.472 0.919331 328.42 1.41819 329.261 2.07384L328.021 3.78422C326.41 2.55845 324.778 1.94556 323.125 1.94556C322.469 1.94556 321.899 2.03821 321.414 2.2235C320.93 2.40879 320.552 2.67247 320.281 3.01455C320.01 3.34237 319.875 3.72721 319.875 4.16906C319.875 4.78195 320.082 5.2523 320.495 5.58012C320.908 5.89369 321.592 6.12175 322.547 6.26428L324.963 6.67049C326.545 6.92705 327.707 7.39028 328.448 8.06018C329.189 8.73008 329.56 9.64941 329.56 10.8182C329.56 11.7304 329.311 12.5357 328.812 13.2341C328.313 13.9182 327.614 14.4527 326.716 14.8376C325.819 15.2224 324.778 15.4148 323.595 15.4148Z" fill="white"/>
<path d="M331.408 18.2583L332.734 13.2768H335L333.033 18.2583H331.408Z" fill="white"/>
<rect x="156.633" y="8.6683" width="29.6942" height="0.593883" fill="white"/>
</svg>
