<svg width="920" height="104" viewBox="0 0 920 104" fill="none" xmlns="http://www.w3.org/2000/svg">
<path d="M23.5473 41.6716C20.5461 41.6716 17.7564 41.1521 15.1784 40.1132C12.6388 39.0359 10.3879 37.5545 8.42551 35.669C6.50161 33.7451 5.00097 31.5327 3.92359 29.0316C2.88469 26.4921 2.36523 23.7601 2.36523 20.8358C2.36523 17.9115 2.88469 15.1988 3.92359 12.6977C5.00097 10.1582 6.50161 7.94569 8.42551 6.06027C10.3879 4.13638 12.6581 2.65498 15.2361 1.61607C17.8141 0.53869 20.5845 0 23.5473 0C25.6636 0 27.7222 0.288583 29.723 0.865752C31.7624 1.40444 33.6285 2.19324 35.3216 3.23215C37.0531 4.27105 38.5537 5.52158 39.8235 6.98374L35.7833 11.1394C34.2827 9.3309 32.455 7.96493 30.3002 7.04146C28.1454 6.07951 25.8945 5.59854 23.5473 5.59854C21.3926 5.59854 19.3917 5.98332 17.5448 6.75287C15.7363 7.52243 14.1587 8.59982 12.812 9.98502C11.4653 11.3317 10.4071 12.9286 9.63756 14.7755C8.90648 16.6225 8.54094 18.6426 8.54094 20.8358C8.54094 22.9906 8.90648 24.9914 9.63756 26.8384C10.4071 28.6853 11.4845 30.3014 12.8697 31.6866C14.2549 33.0718 15.871 34.1492 17.7179 34.9187C19.5649 35.6883 21.5657 36.0731 23.7205 36.0731C26.0676 36.0731 28.2801 35.6113 30.3579 34.6879C32.4742 33.7259 34.2634 32.3792 35.7256 30.6477L39.7081 34.6879C38.3613 36.1115 36.8222 37.3621 35.0907 38.4394C33.3977 39.4784 31.5507 40.2864 29.5499 40.8636C27.5875 41.4022 25.5867 41.6716 23.5473 41.6716Z" fill="white"/>
<path d="M66.3778 41.6716C63.4534 41.6716 60.7215 41.1521 58.182 40.1132C55.6424 39.0359 53.3915 37.5545 51.4291 35.669C49.5052 33.7451 48.0046 31.5327 46.9272 29.0316C45.8883 26.4921 45.3688 23.7601 45.3688 20.8358C45.3688 17.9115 45.8883 15.1988 46.9272 12.6977C48.0046 10.1582 49.5052 7.94569 51.4291 6.06027C53.3915 4.13638 55.6424 2.65498 58.182 1.61607C60.7215 0.53869 63.4534 0 66.3778 0C69.3021 0 72.034 0.53869 74.5736 1.61607C77.1516 2.65498 79.4025 4.13638 81.3264 6.06027C83.2503 7.94569 84.751 10.1582 85.8284 12.6977C86.9057 15.1988 87.4444 17.9115 87.4444 20.8358C87.4444 23.7601 86.9057 26.4921 85.8284 29.0316C84.751 31.5327 83.2503 33.7451 81.3264 35.669C79.4025 37.5545 77.1516 39.0359 74.5736 40.1132C72.034 41.1521 69.3021 41.6716 66.3778 41.6716ZM66.4355 36.0731C68.5133 36.0731 70.4372 35.6883 72.2072 34.9187C74.0156 34.1492 75.5932 33.091 76.94 31.7443C78.2867 30.3591 79.3448 28.743 80.1144 26.8961C80.8839 25.0107 81.2687 22.9906 81.2687 20.8358C81.2687 18.6426 80.8839 16.6225 80.1144 14.7755C79.3448 12.9286 78.2867 11.3317 76.94 9.98502C75.5932 8.59982 74.0156 7.52243 72.2072 6.75287C70.4372 5.98332 68.5133 5.59854 66.4355 5.59854C64.3192 5.59854 62.3568 5.98332 60.5484 6.75287C58.7399 7.52243 57.1623 8.59982 55.8156 9.98502C54.4689 11.3317 53.4107 12.9286 52.6412 14.7755C51.9101 16.6225 51.5445 18.6426 51.5445 20.8358C51.5445 22.9906 51.9101 25.0107 52.6412 26.8961C53.4107 28.743 54.4689 30.3591 55.8156 31.7443C57.1623 33.091 58.7399 34.1492 60.5484 34.9187C62.3568 35.6883 64.3192 36.0731 66.4355 36.0731Z" fill="white"/>
<path d="M96.1349 41.0367V0.634884H102.022L124.589 30.6477V0.634884H130.303V41.0367H124.993L101.907 10.1005V41.0367H96.1349Z" fill="white"/>
<path d="M140.886 41.0367V0.634884H146.773L169.34 30.6477V0.634884H175.054V41.0367H169.744L146.657 10.1005V41.0367H140.886Z" fill="white"/>
<path d="M185.637 41.0367V0.634884H215.419V5.94484H191.697V18.0654H207.28V23.2022H191.697V35.7268H215.649V41.0367H185.637Z" fill="white"/>
<path d="M241.158 41.6716C238.157 41.6716 235.367 41.1521 232.789 40.1132C230.25 39.0359 227.999 37.5545 226.036 35.669C224.112 33.7451 222.612 31.5327 221.534 29.0316C220.495 26.4921 219.976 23.7601 219.976 20.8358C219.976 17.9115 220.495 15.1988 221.534 12.6977C222.612 10.1582 224.112 7.94569 226.036 6.06027C227.999 4.13638 230.269 2.65498 232.847 1.61607C235.425 0.53869 238.195 0 241.158 0C243.274 0 245.333 0.288583 247.334 0.865752C249.373 1.40444 251.239 2.19324 252.932 3.23215C254.664 4.27105 256.164 5.52158 257.434 6.98374L253.394 11.1394C251.893 9.3309 250.066 7.96493 247.911 7.04146C245.756 6.07951 243.505 5.59854 241.158 5.59854C239.003 5.59854 237.002 5.98332 235.155 6.75287C233.347 7.52243 231.769 8.59982 230.423 9.98502C229.076 11.3317 228.018 12.9286 227.248 14.7755C226.517 16.6225 226.152 18.6426 226.152 20.8358C226.152 22.9906 226.517 24.9914 227.248 26.8384C228.018 28.6853 229.095 30.3014 230.48 31.6866C231.866 33.0718 233.482 34.1492 235.329 34.9187C237.176 35.6883 239.176 36.0731 241.331 36.0731C243.678 36.0731 245.891 35.6113 247.969 34.6879C250.085 33.7259 251.874 32.3792 253.336 30.6477L257.319 34.6879C255.972 36.1115 254.433 37.3621 252.701 38.4394C251.008 39.4784 249.161 40.2864 247.161 40.8636C245.198 41.4022 243.197 41.6716 241.158 41.6716Z" fill="white"/>
<path d="M277.202 41.0367V6.00255H263.003V0.634884H297.46V6.00255H283.262V41.0367H277.202Z" fill="white"/>
<path d="M304.84 41.0367V0.634884H310.9V41.0367H304.84Z" fill="white"/>
<path d="M321.465 41.0367V0.634884H327.352L349.92 30.6477V0.634884H355.634V41.0367H350.324L327.237 10.1005V41.0367H321.465Z" fill="white"/>
<path d="M385.609 41.6716C382.646 41.6716 379.876 41.1329 377.298 40.0555C374.758 38.9781 372.526 37.4967 370.603 35.6113C368.679 33.6874 367.178 31.4749 366.101 28.9739C365.023 26.4343 364.485 23.7216 364.485 20.8358C364.485 17.95 365.004 15.2565 366.043 12.7554C367.12 10.2159 368.621 8.00341 370.545 6.11799C372.469 4.19409 374.701 2.69345 377.24 1.61607C379.78 0.53869 382.531 0 385.494 0C388.687 0 391.708 0.615647 394.555 1.84694C397.402 3.07823 399.807 4.7905 401.77 6.98374L397.614 11.0239C396.152 9.29242 394.343 7.96493 392.189 7.04146C390.072 6.07951 387.841 5.59854 385.494 5.59854C383.377 5.59854 381.415 5.98332 379.606 6.75287C377.836 7.52243 376.278 8.59982 374.931 9.98502C373.585 11.3317 372.526 12.9286 371.757 14.7755C371.026 16.6225 370.66 18.6426 370.66 20.8358C370.66 22.9906 371.026 25.0107 371.757 26.8961C372.526 28.743 373.585 30.3591 374.931 31.7443C376.317 33.1295 377.913 34.2069 379.722 34.9764C381.53 35.746 383.493 36.1308 385.609 36.1308C387.995 36.1308 390.149 35.6306 392.073 34.6301C394.036 33.6297 395.632 32.2637 396.864 30.5322C398.095 28.7623 398.845 26.7806 399.115 24.5874H385.667V19.2774H405.464V21.3552C405.464 24.2411 404.963 26.9153 403.963 29.3779C402.963 31.8405 401.558 33.9953 399.75 35.8422C397.98 37.6891 395.883 39.132 393.458 40.171C391.034 41.1714 388.418 41.6716 385.609 41.6716Z" fill="white"/>
<path d="M530.94 41.6139C527.707 41.6139 524.591 40.979 521.589 39.7092C518.588 38.4394 515.933 36.6502 513.625 34.3415L517.318 30.0705C519.512 32.2253 521.743 33.8221 524.014 34.861C526.322 35.8999 528.727 36.4194 531.228 36.4194C533.191 36.4194 534.903 36.15 536.365 35.6113C537.866 35.0342 539.02 34.2261 539.828 33.1872C540.636 32.1483 541.04 30.9747 541.04 29.6665C541.04 27.858 540.405 26.4728 539.135 25.5109C537.866 24.5489 535.769 23.8178 532.844 23.3176L526.091 22.221C522.398 21.5669 519.627 20.3741 517.78 18.6426C515.972 16.911 515.067 14.6024 515.067 11.7165C515.067 9.40785 515.683 7.38776 516.914 5.65625C518.146 3.88627 519.877 2.5203 522.109 1.55836C524.379 0.596407 526.996 0.115432 529.958 0.115432C532.883 0.115432 535.749 0.596407 538.558 1.55836C541.406 2.48183 543.964 3.82855 546.235 5.59854L542.887 10.2159C538.539 6.90679 534.133 5.25224 529.67 5.25224C527.9 5.25224 526.361 5.50234 525.052 6.00255C523.744 6.50277 522.725 7.21461 521.993 8.13808C521.262 9.02307 520.897 10.062 520.897 11.2548C520.897 12.9093 521.455 14.1791 522.571 15.0641C523.687 15.9106 525.533 16.5263 528.112 16.911L534.633 18.0077C538.905 18.7003 542.041 19.9508 544.041 21.7593C546.042 23.5677 547.043 26.0496 547.043 29.2047C547.043 31.6673 546.369 33.8413 545.023 35.7268C543.676 37.5737 541.79 39.0166 539.366 40.0555C536.942 41.0944 534.133 41.6139 530.94 41.6139Z" fill="white"/>
<path d="M554.966 41.0367V0.634884H573.666C576.321 0.634884 578.63 1.15434 580.592 2.19324C582.555 3.19367 584.094 4.59811 585.21 6.40658C586.326 8.21504 586.883 10.3121 586.883 12.6977C586.883 15.0833 586.326 17.1804 585.21 18.9889C584.094 20.7973 582.536 22.221 580.535 23.2599C578.572 24.2603 576.283 24.7605 573.666 24.7605H561.026V41.0367H554.966ZM561.026 19.6237H573.031C575.417 19.6237 577.302 19.0081 578.688 17.7768C580.111 16.507 580.823 14.8332 580.823 12.7554C580.823 10.6776 580.111 9.02307 578.688 7.79178C577.302 6.56049 575.417 5.94484 573.031 5.94484H561.026V19.6237Z" fill="white"/>
<path d="M595.433 41.0367V0.634884H625.215V5.94484H601.494V18.0654H617.077V23.2022H601.494V35.7268H625.446V41.0367H595.433Z" fill="white"/>
<path d="M650.955 41.6716C647.953 41.6716 645.164 41.1521 642.586 40.1132C640.046 39.0359 637.795 37.5545 635.833 35.669C633.909 33.7451 632.408 31.5327 631.331 29.0316C630.292 26.4921 629.773 23.7601 629.773 20.8358C629.773 17.9115 630.292 15.1988 631.331 12.6977C632.408 10.1582 633.909 7.94569 635.833 6.06027C637.795 4.13638 640.065 2.65498 642.643 1.61607C645.221 0.53869 647.992 0 650.955 0C653.071 0 655.13 0.288583 657.13 0.865752C659.17 1.40444 661.036 2.19324 662.729 3.23215C664.46 4.27105 665.961 5.52158 667.231 6.98374L663.191 11.1394C661.69 9.3309 659.862 7.96493 657.708 7.04146C655.553 6.07951 653.302 5.59854 650.955 5.59854C648.8 5.59854 646.799 5.98332 644.952 6.75287C643.144 7.52243 641.566 8.59982 640.219 9.98502C638.873 11.3317 637.814 12.9286 637.045 14.7755C636.314 16.6225 635.948 18.6426 635.948 20.8358C635.948 22.9906 636.314 24.9914 637.045 26.8384C637.814 28.6853 638.892 30.3014 640.277 31.6866C641.662 33.0718 643.278 34.1492 645.125 34.9187C646.972 35.6883 648.973 36.0731 651.128 36.0731C653.475 36.0731 655.687 35.6113 657.765 34.6879C659.882 33.7259 661.671 32.3792 663.133 30.6477L667.115 34.6879C665.769 36.1115 664.23 37.3621 662.498 38.4394C660.805 39.4784 658.958 40.2864 656.957 40.8636C654.995 41.4022 652.994 41.6716 650.955 41.6716Z" fill="white"/>
<path d="M675.353 41.0367V0.634884H681.413V41.0367H675.353Z" fill="white"/>
<path d="M687.938 41.0367L704.618 0.634884H711.775L728.282 41.0367H721.703L717.027 29.2047H698.962L694.229 41.0367H687.938ZM700.924 24.1834H715.065L708.024 6.40658L700.924 24.1834Z" fill="white"/>
<path d="M734.756 41.0367V0.634884H740.817V35.669H764.077V41.0367H734.756Z" fill="white"/>
<path d="M775.089 41.0367V6.00255H760.89V0.634884H795.347V6.00255H781.149V41.0367H775.089Z" fill="white"/>
<path d="M802.727 41.0367V0.634884H808.787V41.0367H802.727Z" fill="white"/>
<path d="M819.352 41.0367V0.634884H849.134V5.94484H825.412V18.0654H840.996V23.2022H825.412V35.7268H849.365V41.0367H819.352Z" fill="white"/>
<path d="M871.582 41.6139C868.35 41.6139 865.233 40.979 862.232 39.7092C859.231 38.4394 856.576 36.6502 854.267 34.3415L857.961 30.0705C860.154 32.2253 862.386 33.8221 864.656 34.861C866.965 35.8999 869.37 36.4194 871.871 36.4194C873.833 36.4194 875.545 36.15 877.007 35.6113C878.508 35.0342 879.662 34.2261 880.47 33.1872C881.278 32.1483 881.682 30.9747 881.682 29.6665C881.682 27.858 881.048 26.4728 879.778 25.5109C878.508 24.5489 876.411 23.8178 873.487 23.3176L866.734 22.221C863.04 21.5669 860.269 20.3741 858.422 18.6426C856.614 16.911 855.71 14.6024 855.71 11.7165C855.71 9.40785 856.326 7.38776 857.557 5.65625C858.788 3.88627 860.52 2.5203 862.751 1.55836C865.021 0.596407 867.638 0.115432 870.601 0.115432C873.525 0.115432 876.392 0.596407 879.201 1.55836C882.048 2.48183 884.607 3.82855 886.877 5.59854L883.529 10.2159C879.181 6.90679 874.776 5.25224 870.312 5.25224C868.542 5.25224 867.003 5.50234 865.695 6.00255C864.387 6.50277 863.367 7.21461 862.636 8.13808C861.905 9.02307 861.539 10.062 861.539 11.2548C861.539 12.9093 862.097 14.1791 863.213 15.0641C864.329 15.9106 866.176 16.5263 868.754 16.911L875.276 18.0077C879.547 18.7003 882.683 19.9508 884.684 21.7593C886.685 23.5677 887.685 26.0496 887.685 29.2047C887.685 31.6673 887.012 33.8413 885.665 35.7268C884.318 37.5737 882.433 39.0166 880.009 40.0555C877.584 41.0944 874.776 41.6139 871.582 41.6139Z" fill="white"/>
<path d="M892.674 49.2902L896.253 35.8422H902.371L897.061 49.2902H892.674Z" fill="white"/>
<path d="M81.0297 99.3885C78.0285 99.3885 75.2388 98.869 72.6608 97.8301C70.1213 96.7528 67.8703 95.2713 65.9079 93.3859C63.984 91.462 62.4834 89.2495 61.406 86.7485C60.3671 84.2089 59.8476 81.477 59.8476 78.5527C59.8476 75.6284 60.3671 72.9157 61.406 70.4146C62.4834 67.8751 63.984 65.6626 65.9079 63.7772C67.8703 61.8533 70.1405 60.3719 72.7185 59.333C75.2965 58.2556 78.0669 57.7169 81.0297 57.7169C83.146 57.7169 85.2046 58.0055 87.2055 58.5826C89.2448 59.1213 91.111 59.9101 92.804 60.949C94.5355 61.9879 96.0361 63.2385 97.3059 64.7006L93.2657 68.8563C91.7651 67.0478 89.9374 65.6818 87.7826 64.7583C85.6279 63.7964 83.3769 63.3154 81.0297 63.3154C78.875 63.3154 76.8741 63.7002 75.0272 64.4698C73.2187 65.2393 71.6411 66.3167 70.2944 67.7019C68.9477 69.0486 67.8895 70.6455 67.12 72.4924C66.3889 74.3394 66.0233 76.3594 66.0233 78.5527C66.0233 80.7075 66.3889 82.7083 67.12 84.5552C67.8895 86.4022 68.9669 88.0183 70.3521 89.4035C71.7373 90.7887 73.3534 91.8661 75.2003 92.6356C77.0473 93.4052 79.0481 93.7899 81.2029 93.7899C83.55 93.7899 85.7625 93.3282 87.8403 92.4047C89.9566 91.4428 91.7458 90.0961 93.208 88.3646L97.1905 92.4047C95.8438 93.8284 94.3046 95.0789 92.5731 96.1563C90.8801 97.1952 89.0331 98.0033 87.0323 98.5804C85.0699 99.1191 83.0691 99.3885 81.0297 99.3885Z" fill="white"/>
<path d="M124.033 99.3885C121.032 99.3885 118.242 98.869 115.664 97.8301C113.125 96.7528 110.874 95.2713 108.912 93.3859C106.988 91.462 105.487 89.2495 104.41 86.7485C103.371 84.2089 102.851 81.477 102.851 78.5527C102.851 75.6284 103.371 72.9157 104.41 70.4146C105.487 67.8751 106.988 65.6626 108.912 63.7772C110.874 61.8533 113.144 60.3719 115.722 59.333C118.3 58.2556 121.071 57.7169 124.033 57.7169C126.15 57.7169 128.208 58.0055 130.209 58.5826C132.248 59.1213 134.115 59.9101 135.808 60.949C137.539 61.9879 139.04 63.2385 140.309 64.7006L136.269 68.8563C134.769 67.0478 132.941 65.6818 130.786 64.7583C128.631 63.7964 126.38 63.3154 124.033 63.3154C121.879 63.3154 119.878 63.7002 118.031 64.4698C116.222 65.2393 114.645 66.3167 113.298 67.7019C111.951 69.0486 110.893 70.6455 110.124 72.4924C109.392 74.3394 109.027 76.3594 109.027 78.5527C109.027 80.7075 109.392 82.7083 110.124 84.5552C110.893 86.4022 111.971 88.0183 113.356 89.4035C114.741 90.7887 116.357 91.8661 118.204 92.6356C120.051 93.4052 122.052 93.7899 124.206 93.7899C126.554 93.7899 128.766 93.3282 130.844 92.4047C132.96 91.4428 134.749 90.0961 136.212 88.3646L140.194 92.4047C138.847 93.8284 137.308 95.0789 135.577 96.1563C133.884 97.1952 132.037 98.0033 130.036 98.5804C128.074 99.1191 126.073 99.3885 124.033 99.3885Z" fill="white"/>
<path d="M148.432 98.7536V58.3518H178.214V63.6617H154.492V75.7823H170.076V80.9191H154.492V93.4436H178.445V98.7536H148.432Z" fill="white"/>
<path d="M186.983 98.7536V58.3518H193.043V93.3859H216.303V98.7536H186.983Z" fill="white"/>
<path d="M224.744 98.7536V58.3518H254.526V63.6617H230.805V75.7823H246.388V80.9191H230.805V93.4436H254.757V98.7536H224.744Z" fill="white"/>
<path d="M263.295 98.7536V58.3518H281.591C284.285 58.3518 286.632 58.852 288.633 59.8524C290.672 60.8528 292.25 62.2573 293.366 64.0657C294.52 65.8357 295.097 67.9135 295.097 70.2992C295.097 72.9541 294.347 75.2436 292.846 77.1675C291.346 79.0914 289.326 80.4766 286.786 81.3231L295.79 98.7536H289.095L280.726 82.1889H269.355V98.7536H263.295ZM269.355 77.1098H281.13C283.515 77.1098 285.42 76.5134 286.844 75.3205C288.306 74.0892 289.037 72.4347 289.037 70.3569C289.037 68.356 288.306 66.74 286.844 65.5087C285.42 64.2774 283.515 63.6617 281.13 63.6617H269.355V77.1098Z" fill="white"/>
<path d="M300.173 98.7536L316.853 58.3518H324.01L340.517 98.7536H333.937L329.262 86.9216H311.197L306.464 98.7536H300.173ZM313.159 81.9003H327.3L320.259 64.1235L313.159 81.9003Z" fill="white"/>
<path d="M350.802 98.7536V63.7194H336.604V58.3518H371.061V63.7194H356.862V98.7536H350.802Z" fill="white"/>
<path d="M378.44 98.7536V58.3518H408.222V63.6617H384.501V75.7823H400.084V80.9191H384.501V93.4436H408.453V98.7536H378.44Z" fill="white"/>
<path d="M443.482 98.7536V82.7083L427.206 58.3518H434.248L446.657 77.3406L459.066 58.3518H465.819L449.543 82.8237V98.7536H443.482Z" fill="white"/>
<path d="M487.612 99.3885C484.687 99.3885 481.956 98.869 479.416 97.8301C476.876 96.7528 474.626 95.2713 472.663 93.3859C470.739 91.462 469.239 89.2495 468.161 86.7485C467.122 84.2089 466.603 81.477 466.603 78.5527C466.603 75.6284 467.122 72.9157 468.161 70.4146C469.239 67.8751 470.739 65.6626 472.663 63.7772C474.626 61.8533 476.876 60.3719 479.416 59.333C481.956 58.2556 484.687 57.7169 487.612 57.7169C490.536 57.7169 493.268 58.2556 495.808 59.333C498.386 60.3719 500.637 61.8533 502.56 63.7772C504.484 65.6626 505.985 67.8751 507.062 70.4146C508.14 72.9157 508.678 75.6284 508.678 78.5527C508.678 81.477 508.14 84.2089 507.062 86.7485C505.985 89.2495 504.484 91.462 502.56 93.3859C500.637 95.2713 498.386 96.7528 495.808 97.8301C493.268 98.869 490.536 99.3885 487.612 99.3885ZM487.67 93.7899C489.747 93.7899 491.671 93.4052 493.441 92.6356C495.25 91.8661 496.827 90.8079 498.174 89.4612C499.521 88.076 500.579 86.4599 501.348 84.613C502.118 82.7275 502.503 80.7075 502.503 78.5527C502.503 76.3594 502.118 74.3394 501.348 72.4924C500.579 70.6455 499.521 69.0486 498.174 67.7019C496.827 66.3167 495.25 65.2393 493.441 64.4698C491.671 63.7002 489.747 63.3154 487.67 63.3154C485.553 63.3154 483.591 63.7002 481.782 64.4698C479.974 65.2393 478.396 66.3167 477.05 67.7019C475.703 69.0486 474.645 70.6455 473.875 72.4924C473.144 74.3394 472.779 76.3594 472.779 78.5527C472.779 80.7075 473.144 82.7275 473.875 84.613C474.645 86.4599 475.703 88.076 477.05 89.4612C478.396 90.8079 479.974 91.8661 481.782 92.6356C483.591 93.4052 485.553 93.7899 487.67 93.7899Z" fill="white"/>
<path d="M533.818 99.3885C530.317 99.3885 527.277 98.6574 524.699 97.1952C522.121 95.7331 520.139 93.6745 518.754 91.0195C517.369 88.3261 516.676 85.1516 516.676 81.4962V58.3518H522.737V81.4962C522.737 83.9973 523.179 86.1713 524.064 88.0183C524.988 89.8652 526.277 91.2889 527.931 92.2893C529.624 93.2897 531.587 93.7899 533.818 93.7899C536.127 93.7899 538.109 93.2897 539.763 92.2893C541.418 91.2889 542.687 89.8652 543.572 88.0183C544.496 86.1713 544.958 83.9973 544.958 81.4962V58.3518H551.018V81.4962C551.018 85.1516 550.306 88.3261 548.882 91.0195C547.497 93.6745 545.516 95.7331 542.938 97.1952C540.359 98.6574 537.32 99.3885 533.818 99.3885Z" fill="white"/>
<path d="M560.823 98.7536V58.3518H579.12C581.813 58.3518 584.16 58.852 586.161 59.8524C588.201 60.8528 589.778 62.2573 590.894 64.0657C592.048 65.8357 592.625 67.9135 592.625 70.2992C592.625 72.9541 591.875 75.2436 590.375 77.1675C588.874 79.0914 586.854 80.4766 584.314 81.3231L593.318 98.7536H586.623L578.254 82.1889H566.884V98.7536H560.823ZM566.884 77.1098H578.658C581.044 77.1098 582.948 76.5134 584.372 75.3205C585.834 74.0892 586.565 72.4347 586.565 70.3569C586.565 68.356 585.834 66.74 584.372 65.5087C582.948 64.2774 581.044 63.6617 578.658 63.6617H566.884V77.1098Z" fill="white"/>
<path d="M615.549 98.7536V58.3518H633.037C635.692 58.3518 638 58.7943 639.963 59.6793C641.925 60.5643 643.445 61.8148 644.522 63.4309C645.6 65.0085 646.138 66.8746 646.138 69.0294C646.138 70.9918 645.638 72.7233 644.638 74.2239C643.637 75.7246 642.233 76.9174 640.424 77.8024C642.695 78.6104 644.465 79.8417 645.734 81.4962C647.043 83.1123 647.697 85.017 647.697 87.2102C647.697 89.5574 647.12 91.5967 645.965 93.3282C644.811 95.0597 643.195 96.4064 641.117 97.3684C639.039 98.2919 636.596 98.7536 633.787 98.7536H615.549ZM621.609 75.4937H632.69C634.961 75.4937 636.769 74.955 638.116 73.8776C639.463 72.8002 640.136 71.3381 640.136 69.4911C640.136 67.6442 639.463 66.182 638.116 65.1047C636.769 64.0273 634.961 63.4886 632.69 63.4886H621.609V75.4937ZM621.609 93.6168H633.325C635.865 93.6168 637.866 93.0204 639.328 91.8276C640.828 90.6348 641.579 89.0187 641.579 86.9793C641.579 84.9785 640.828 83.3817 639.328 82.1889C637.866 80.9576 635.865 80.3419 633.325 80.3419H621.609V93.6168Z" fill="white"/>
<path d="M673.029 99.3885C669.527 99.3885 666.487 98.6574 663.909 97.1952C661.331 95.7331 659.35 93.6745 657.965 91.0195C656.579 88.3261 655.887 85.1516 655.887 81.4962V58.3518H661.947V81.4962C661.947 83.9973 662.389 86.1713 663.274 88.0183C664.198 89.8652 665.487 91.2889 667.142 92.2893C668.835 93.2897 670.797 93.7899 673.029 93.7899C675.337 93.7899 677.319 93.2897 678.973 92.2893C680.628 91.2889 681.898 89.8652 682.783 88.0183C683.706 86.1713 684.168 83.9973 684.168 81.4962V58.3518H690.228V81.4962C690.228 85.1516 689.516 88.3261 688.093 91.0195C686.708 93.6745 684.726 95.7331 682.148 97.1952C679.57 98.6574 676.53 99.3885 673.029 99.3885Z" fill="white"/>
<path d="M713.713 99.3308C710.481 99.3308 707.364 98.6959 704.363 97.4261C701.361 96.1563 698.706 94.3671 696.398 92.0584L700.092 87.7874C702.285 89.9422 704.517 91.539 706.787 92.5779C709.095 93.6168 711.5 94.1363 714.001 94.1363C715.964 94.1363 717.676 93.8669 719.138 93.3282C720.639 92.751 721.793 91.943 722.601 90.9041C723.409 89.8652 723.813 88.6916 723.813 87.3834C723.813 85.5749 723.178 84.1897 721.909 83.2278C720.639 82.2658 718.542 81.5347 715.617 81.0345L708.865 79.9379C705.171 79.2838 702.4 78.091 700.553 76.3594C698.745 74.6279 697.841 72.3193 697.841 69.4334C697.841 67.1247 698.456 65.1047 699.688 63.3731C700.919 61.6032 702.65 60.2372 704.882 59.2752C707.152 58.3133 709.769 57.8323 712.732 57.8323C715.656 57.8323 718.522 58.3133 721.331 59.2752C724.179 60.1987 726.737 61.5454 729.008 63.3154L725.66 67.9328C721.312 64.6237 716.906 62.9691 712.443 62.9691C710.673 62.9691 709.134 63.2192 707.826 63.7194C706.517 64.2197 705.498 64.9315 704.767 65.855C704.036 66.74 703.67 67.7789 703.67 68.9717C703.67 70.6262 704.228 71.896 705.344 72.781C706.46 73.6275 708.307 74.2432 710.885 74.6279L717.407 75.7246C721.678 76.4172 724.814 77.6677 726.814 79.4762C728.815 81.2846 729.816 83.7664 729.816 86.9216C729.816 89.3842 729.142 91.5582 727.796 93.4436C726.449 95.2906 724.563 96.7335 722.139 97.7724C719.715 98.8113 716.906 99.3308 713.713 99.3308Z" fill="white"/>
<path d="M737.739 98.7536V58.3518H743.799V98.7536H737.739Z" fill="white"/>
<path d="M754.364 98.7536V58.3518H760.251L782.819 88.3646V58.3518H788.533V98.7536H783.223L760.136 67.8173V98.7536H754.364Z" fill="white"/>
<path d="M799.115 98.7536V58.3518H828.897V63.6617H805.176V75.7823H820.759V80.9191H805.176V93.4436H829.128V98.7536H799.115Z" fill="white"/>
<path d="M851.345 99.3308C848.113 99.3308 844.996 98.6959 841.995 97.4261C838.994 96.1563 836.339 94.3671 834.03 92.0584L837.724 87.7874C839.917 89.9422 842.149 91.539 844.419 92.5779C846.728 93.6168 849.133 94.1363 851.634 94.1363C853.596 94.1363 855.308 93.8669 856.77 93.3282C858.271 92.751 859.425 91.943 860.233 90.9041C861.041 89.8652 861.445 88.6916 861.445 87.3834C861.445 85.5749 860.811 84.1897 859.541 83.2278C858.271 82.2658 856.174 81.5347 853.25 81.0345L846.497 79.9379C842.803 79.2838 840.032 78.091 838.186 76.3594C836.377 74.6279 835.473 72.3193 835.473 69.4334C835.473 67.1247 836.089 65.1047 837.32 63.3731C838.551 61.6032 840.283 60.2372 842.514 59.2752C844.784 58.3133 847.401 57.8323 850.364 57.8323C853.288 57.8323 856.155 58.3133 858.964 59.2752C861.811 60.1987 864.37 61.5454 866.64 63.3154L863.292 67.9328C858.944 64.6237 854.539 62.9691 850.075 62.9691C848.305 62.9691 846.766 63.2192 845.458 63.7194C844.15 64.2197 843.13 64.9315 842.399 65.855C841.668 66.74 841.302 67.7789 841.302 68.9717C841.302 70.6262 841.86 71.896 842.976 72.781C844.092 73.6275 845.939 74.2432 848.517 74.6279L855.039 75.7246C859.31 76.4172 862.446 77.6677 864.447 79.4762C866.448 81.2846 867.448 83.7664 867.448 86.9216C867.448 89.3842 866.775 91.5582 865.428 93.4436C864.081 95.2906 862.196 96.7335 859.772 97.7724C857.348 98.8113 854.539 99.3308 851.345 99.3308Z" fill="white"/>
<path d="M889.614 99.3308C886.382 99.3308 883.265 98.6959 880.264 97.4261C877.263 96.1563 874.608 94.3671 872.299 92.0584L875.993 87.7874C878.186 89.9422 880.418 91.539 882.688 92.5779C884.997 93.6168 887.401 94.1363 889.903 94.1363C891.865 94.1363 893.577 93.8669 895.039 93.3282C896.54 92.751 897.694 91.943 898.502 90.9041C899.31 89.8652 899.714 88.6916 899.714 87.3834C899.714 85.5749 899.08 84.1897 897.81 83.2278C896.54 82.2658 894.443 81.5347 891.519 81.0345L884.766 79.9379C881.072 79.2838 878.301 78.091 876.455 76.3594C874.646 74.6279 873.742 72.3193 873.742 69.4334C873.742 67.1247 874.358 65.1047 875.589 63.3731C876.82 61.6032 878.552 60.2372 880.783 59.2752C883.054 58.3133 885.67 57.8323 888.633 57.8323C891.557 57.8323 894.424 58.3133 897.233 59.2752C900.08 60.1987 902.639 61.5454 904.909 63.3154L901.561 67.9328C897.213 64.6237 892.808 62.9691 888.344 62.9691C886.574 62.9691 885.035 63.2192 883.727 63.7194C882.419 64.2197 881.399 64.9315 880.668 65.855C879.937 66.74 879.571 67.7789 879.571 68.9717C879.571 70.6262 880.129 71.896 881.245 72.781C882.361 73.6275 884.208 74.2432 886.786 74.6279L893.308 75.7246C897.579 76.4172 900.715 77.6677 902.716 79.4762C904.717 81.2846 905.717 83.7664 905.717 86.9216C905.717 89.3842 905.044 91.5582 903.697 93.4436C902.35 95.2906 900.465 96.7335 898.041 97.7724C895.617 98.8113 892.808 99.3308 889.614 99.3308Z" fill="white"/>
<path d="M916.363 99.1576C915.362 99.1576 914.496 98.8113 913.765 98.1187C913.073 97.3876 912.726 96.5219 912.726 95.5215C912.726 94.521 913.073 93.6745 913.765 92.9819C914.496 92.2508 915.362 91.8853 916.363 91.8853C917.363 91.8853 918.21 92.2508 918.902 92.9819C919.633 93.6745 919.999 94.521 919.999 95.5215C919.999 96.5219 919.633 97.3876 918.902 98.1187C918.21 98.8113 917.363 99.1576 916.363 99.1576Z" fill="white"/>
<path fill-rule="evenodd" clip-rule="evenodd" d="M32.7523 60.3623C31.8668 59.3573 30.9685 58.3458 29.6501 57.8708H29.1912C28.225 58.0615 27.4397 58.572 26.7385 59.2474C25.6237 60.3235 24.7092 61.5579 23.8625 62.8408C20.2724 68.2955 17.2542 74.0734 14.4105 79.9385C11.3923 86.1558 8.94932 92.609 6.78747 99.1689C6.42865 100.259 6.08578 101.354 5.74317 102.448C5.59828 102.911 5.45344 103.373 5.30746 103.835C5.4238 103.754 5.48196 103.657 5.53366 103.554C6.63578 101.304 7.73305 99.0519 8.83039 96.7993C11.3205 91.6877 13.811 86.5755 16.3591 81.4928C19.1123 75.9961 22.2306 70.6997 25.6463 65.5843C26.5026 64.3014 27.485 63.0961 28.4706 61.9037C28.9747 61.2929 29.3043 61.3091 29.8375 61.9037C30.4805 62.6243 31.1042 63.3708 31.6471 64.1689C34.0384 67.688 36.029 71.4365 37.9549 75.2238C41.1961 81.5962 43.8071 88.2272 46.1531 94.9712C46.182 95.0518 46.2017 95.135 46.2248 95.2327C46.2378 95.2878 46.252 95.3475 46.2695 95.4139C46.187 95.375 46.1115 95.3405 46.0407 95.3082C45.9117 95.2494 45.7984 95.1977 45.6878 95.1393C45.1882 94.877 44.691 94.6094 44.1937 94.3417C43.1468 93.7782 42.0993 93.2143 41.028 92.6995C36.2067 90.389 31.2205 88.4824 26.1762 86.7278C23.6105 85.8359 21.0124 85.0248 18.4143 84.2266C18.0015 84.099 17.8476 84.019 17.7428 84.0612C17.6327 84.1055 17.5768 84.2847 17.3317 84.6855C17.1593 84.9662 16.9945 85.2515 16.8258 85.5433C16.7479 85.6782 16.6691 85.8144 16.5885 85.9522C16.6551 85.9736 16.7124 85.9925 16.764 86.0095C16.8452 86.0363 16.9123 86.0585 16.9795 86.0782C19.9331 86.9216 22.822 87.9557 25.6754 89.0867C32.7975 91.9046 39.6256 95.3428 46.4407 98.8199C47.4845 99.3531 48.5476 99.8507 49.6172 100.332C50.144 100.571 50.3863 100.423 50.4639 99.841C50.5091 99.4985 50.5221 99.1398 50.4639 98.8005C50.4508 98.7233 50.4377 98.646 50.4246 98.5687C50.2765 97.6946 50.1275 96.8148 49.9048 95.9568C48.9806 92.3764 47.6784 88.9252 46.3244 85.4933C44.0559 79.7413 41.5968 74.0734 38.4946 68.7091C36.8013 65.7782 34.9981 62.9151 32.7523 60.3623ZM10.4903 83.2516C10.5553 83.1159 10.6229 82.9746 10.6929 82.8241L10.6897 82.8209C7.03812 82.6238 3.48998 82.8144 0 83.7322C0.0517034 83.7677 0.103407 83.7742 0.15511 83.7742C0.737216 83.7935 1.31908 83.8114 1.90078 83.8293C3.46003 83.8772 5.01802 83.9251 6.57602 84.0004C7.39126 84.0413 8.20245 84.1428 9.01279 84.2442C9.2271 84.271 9.44135 84.2978 9.6556 84.3235C9.9012 84.3526 10.0272 84.2944 10.1209 84.0618C10.2303 83.795 10.3544 83.5356 10.4903 83.2516Z" fill="white"/>
<rect x="420.852" y="23.401" width="80.1623" height="1.60325" fill="white"/>
</svg>
